<svg width="25" height="25" viewBox="0 0 25 25" fill="none" xmlns="http://www.w3.org/2000/svg">
<path fill-rule="evenodd" clip-rule="evenodd" d="M11.3722 0.029582C8.95788 0.266098 6.72643 1.15607 4.76994 2.66276C3.81718 3.39647 2.57987 4.77536 1.86484 5.90018C1.55604 6.38598 0.954917 7.61698 0.739578 8.20446C0.498807 8.86138 0.24219 9.86526 0.115911 10.6442C-0.0386369 11.5976 -0.0386369 13.4078 0.115911 14.3612C0.334429 15.709 0.680107 16.7985 1.27179 18.0048C1.91825 19.3226 2.59043 20.2567 3.66683 21.3332C4.74329 22.4096 5.67742 23.0818 6.99523 23.7282C8.20148 24.3199 9.29104 24.6656 10.6388 24.8841C11.5922 25.0386 13.4024 25.0386 14.3558 24.8841C15.7036 24.6656 16.7931 24.3199 17.9994 23.7282C19.3172 23.0818 20.2513 22.4096 21.3278 21.3332C22.4042 20.2567 23.0764 19.3226 23.7228 18.0048C24.1522 17.1294 24.3682 16.5557 24.5995 15.676C24.9076 14.5045 24.9857 13.8623 24.9857 12.5027C24.9857 11.1431 24.9076 10.5009 24.5995 9.32933C24.3682 8.44963 24.1522 7.87595 23.7228 7.0006C23.0764 5.68279 22.4042 4.74866 21.3278 3.67221C20.2513 2.5958 19.3172 1.92362 17.9994 1.27716C16.7943 0.686018 15.6832 0.333346 14.3802 0.128375C13.6614 0.015301 12.0561 -0.0374211 11.3722 0.029582ZM14.0314 1.17861C16.5407 1.53104 18.7856 2.64794 20.5688 4.43115C22.3854 6.24777 23.4997 8.52451 23.8489 11.1333C23.9289 11.7314 23.9289 13.274 23.8489 13.8721C23.4997 16.4809 22.3854 18.7576 20.5688 20.5742C18.7522 22.3908 16.4755 23.505 13.8667 23.8542C13.2686 23.9343 11.726 23.9343 11.1279 23.8542C8.51913 23.505 6.2424 22.3908 4.42578 20.5742C2.60921 18.7576 1.49495 16.4809 1.14575 13.8721C1.06569 13.274 1.06569 11.7314 1.14575 11.1333C1.49495 8.52451 2.60921 6.24777 4.42578 4.43115C6.4169 2.44003 8.84095 1.34275 11.8126 1.0873C12.2083 1.05331 13.5248 1.1075 14.0314 1.17861ZM18.7105 7.74003C18.6268 7.81051 17.0051 9.92884 15.1066 12.4474C13.2082 14.966 11.627 17.0563 11.5928 17.0925C11.5414 17.147 11.0897 16.7983 8.99393 15.0862C7.59875 13.9465 6.39377 12.965 6.31615 12.905C6.01014 12.6688 5.55794 12.8113 5.45733 13.1757C5.3626 13.5189 5.40212 13.5581 7.90002 15.5992C11.5698 18.5979 11.4044 18.4694 11.5925 18.4694C11.6832 18.4694 11.8105 18.4492 11.8755 18.4244C12.0459 18.3596 19.4926 8.48211 19.5445 8.252C19.6534 7.76918 19.0882 7.42228 18.7105 7.74003Z" fill="white"/>
</svg>
