<svg width="21" height="30" viewBox="0 0 21 30" fill="none" xmlns="http://www.w3.org/2000/svg">
<path fill-rule="evenodd" clip-rule="evenodd" d="M13.7661 1.10308C11.3329 1.70682 9.26915 2.21908 9.1799 2.24141C8.81868 2.33183 8.77426 2.86771 9.11315 3.04669C9.25103 3.11953 9.64551 3.03262 13.5639 2.06624L17.8634 1.00586V2.69793V4.39006H16.8215C15.7945 4.39006 15.7775 4.39212 15.6339 4.53394C15.4468 4.71848 15.4433 4.97276 15.6255 5.14172C15.7615 5.26778 15.7865 5.26912 17.9414 5.26912H20.1199V17.195V29.1209H13.1102H6.10043L5.95471 29.2648C5.87454 29.3439 5.80892 29.477 5.80892 29.5605C5.80892 29.644 5.87454 29.777 5.95471 29.8561L6.10043 30H13.4005C20.4996 30 20.7044 29.9969 20.8407 29.888L20.9809 29.776L20.9965 17.3027C21.0075 8.47605 20.9933 4.7847 20.9479 4.67605C20.8453 4.43021 20.6662 4.39006 19.6717 4.39006H18.7541V2.33629V0.282453L18.6083 0.138639C18.5282 0.0595236 18.4013 -0.00283101 18.3263 9.91932e-05C18.2513 0.00302939 16.1992 0.499405 13.7661 1.10308ZM3.90872 3.53814C1.93279 4.0307 0.271834 4.45218 0.217678 4.47469C0.163462 4.49725 0.0897105 4.58633 0.0536659 4.67265C0.00639824 4.78582 -0.00755659 8.30944 0.00366652 17.3027L0.0192245 29.776L0.159424 29.888C0.291726 29.9937 0.421416 30 2.46313 30H4.6267L4.77242 29.8561C4.97081 29.6604 4.9663 29.4012 4.76173 29.2424C4.61102 29.1254 4.53709 29.1209 2.74276 29.1209H0.880257V17.195V5.26912H7.59304H14.3059L14.4516 5.12525C14.5318 5.04614 14.5974 4.94194 14.5974 4.89365C14.5974 4.72897 14.4658 4.52034 14.3209 4.45511C14.2188 4.40923 12.7116 4.38854 9.20573 4.38491L4.23531 4.37975L6.0034 3.93073C7.03854 3.66783 7.82012 3.43945 7.88876 3.37973C8.06566 3.2259 8.04565 2.90563 7.84957 2.75343C7.76353 2.68662 7.64993 2.63435 7.5972 2.63728C7.54447 2.64021 5.88464 3.04563 3.90872 3.53814ZM13.5259 10.2942C12.3178 11.3981 11.5424 12.773 11.6552 13.6114C11.6768 13.7721 11.7338 13.9967 11.7821 14.1105L11.8697 14.3175L11.2899 14.8919C10.971 15.2078 10.6825 15.4662 10.6487 15.4662C10.6149 15.4662 10.2691 15.1514 9.88024 14.7666L9.17325 14.067L9.27253 13.7637C9.46843 13.1651 9.37306 12.4428 9.00229 11.716C8.75045 11.2225 8.04102 10.51 7.58995 10.2976C6.68326 9.87065 5.77739 9.98932 5.1062 10.6229C4.0276 11.641 4.37462 13.3434 5.85922 14.3175C6.64419 14.8325 7.61561 15.0162 8.24357 14.7684L8.51078 14.6629L9.2676 15.4004L10.0244 16.1379L8.45111 17.6945C7.40641 18.7282 6.87779 19.292 6.87779 19.3726C6.87779 19.5952 7.10077 19.8029 7.33972 19.8029C7.54263 19.8029 7.64791 19.712 9.10294 18.2797L10.6504 16.7565L12.193 18.2797C13.6393 19.7079 13.7488 19.8029 13.9494 19.8029C14.2105 19.8029 14.3654 19.6531 14.3729 19.3934C14.3777 19.2247 14.2269 19.0571 12.8248 17.6726L11.2714 16.1387L11.89 15.5303L12.5085 14.9219L12.7618 15.0219C13.7145 15.3981 15.0287 14.8099 16.4531 13.3695C16.8821 12.9357 16.9727 12.8122 16.9727 12.6608C16.9727 12.4199 16.7898 12.243 16.5408 12.243C16.3763 12.243 16.2734 12.3159 15.8727 12.7162C14.9529 13.6351 14.0039 14.2354 13.4709 14.2355L13.2055 14.2355L14.4953 12.9578C15.6366 11.8272 15.785 11.6586 15.785 11.4927C15.785 11.248 15.604 11.0709 15.354 11.0709C15.1811 11.0709 15.0244 11.2053 13.8848 12.3309C13.1832 13.0239 12.5858 13.5909 12.5573 13.5909C12.4612 13.5909 12.5829 13.0367 12.7576 12.679C12.9927 12.1976 13.4384 11.6292 14.0704 11.005C14.6434 10.4389 14.7197 10.254 14.4786 10.016C14.2453 9.78579 14.0058 9.8557 13.5259 10.2942ZM7.15831 11.0707C7.53817 11.2365 8.03745 11.7609 8.25924 12.2269C8.61346 12.9714 8.53418 13.6393 8.06085 13.8981C7.79571 14.0431 7.2032 14.0123 6.79044 13.8321C5.48066 13.2603 4.95086 11.9365 5.74758 11.2262C5.87763 11.1102 6.05821 10.9991 6.14888 10.9794C6.2395 10.9596 6.34039 10.9335 6.37305 10.9213C6.48492 10.8795 6.90238 10.959 7.15831 11.0707ZM5.77116 22.2742C5.64473 22.3347 5.51202 22.552 5.51202 22.6986C5.51202 22.7411 5.56742 22.8454 5.63511 22.9303L5.75815 23.0847H10.4774H15.1966L15.3423 22.9409C15.4225 22.8617 15.4881 22.7575 15.4881 22.7093C15.4881 22.5446 15.3565 22.3359 15.2116 22.2707C15.0163 22.1829 5.95518 22.1863 5.77116 22.2742ZM7.28818 24.6595C7.18883 24.7388 7.15095 24.83 7.15095 24.9894C7.15095 25.1488 7.18883 25.2399 7.28818 25.3192C7.41828 25.4232 7.58425 25.4289 10.4934 25.4289C13.8244 25.4289 13.7664 25.4345 13.8496 25.1074C13.893 24.9367 13.7599 24.6411 13.6149 24.5862C13.5621 24.5662 12.1478 24.5498 10.4721 24.5498C7.58378 24.5498 7.41822 24.5555 7.28818 24.6595Z" fill="white"/>
</svg>
