<svg width="25" height="25" viewBox="0 0 25 25" fill="none" xmlns="http://www.w3.org/2000/svg">
<path fill-rule="evenodd" clip-rule="evenodd" d="M12.0054 0.0771108C11.4508 0.266735 11.0973 0.623411 10.9352 1.15711C10.722 1.85907 11.1095 2.63922 11.8325 2.96369C12.2414 3.14716 12.8195 3.14335 13.2011 2.9547C13.4985 2.80763 13.7862 2.55381 13.9052 2.3336C13.9486 2.25342 14.0006 2.18785 14.021 2.18795C14.0413 2.18804 14.2648 2.2223 14.5175 2.26407C16.268 2.55332 18.0025 3.27874 19.4574 4.32996C23.3059 7.11066 24.8818 12.0313 23.3434 16.4642C23.098 17.1711 22.6218 18.1588 22.2519 18.7277C20.4267 21.5351 17.4704 23.3863 14.058 23.8586C13.2321 23.9729 11.7693 23.9729 10.9434 23.8586C7.53101 23.3863 4.57471 21.5351 2.74952 18.7277C2.3796 18.1588 1.90338 17.1711 1.65804 16.4642C0.871175 14.1969 0.872401 11.82 1.66166 9.54583C2.08964 8.31261 2.91607 6.90261 3.74057 5.99886C4.44232 5.22966 4.48449 5.17161 4.48449 4.975C4.48449 4.64823 4.17104 4.41297 3.82073 4.47683C3.58147 4.52046 2.63132 5.56904 2.0202 6.46381C0.909367 8.09034 0.246984 9.88647 0.0397879 11.8342C-0.0380254 12.5655 0.00348517 14.1387 0.119184 14.8425C0.884144 19.497 4.40642 23.2842 9.16182 24.5651C13.0189 25.6041 17.2673 24.753 20.3946 22.3147C22.791 20.4463 24.4001 17.7673 24.8825 14.8425C25.0116 14.06 25.0399 12.4745 24.9395 11.6486C24.5241 8.23121 22.6837 5.24471 19.7647 3.25099C18.2358 2.20676 16.0699 1.37556 14.3782 1.18388L14.0858 1.15075L13.9641 0.896488C13.6328 0.20395 12.734 -0.172025 12.0054 0.0771108ZM12.8778 1.21178C13.2101 1.51876 12.9703 2.05456 12.5007 2.05456C12.0343 2.05456 11.7969 1.53113 12.1178 1.21056C12.3477 0.980966 12.6285 0.981406 12.8778 1.21178ZM5.67829 6.33648C5.59068 6.38758 5.49458 6.49639 5.46477 6.57833C5.35172 6.88864 5.20595 6.68753 8.5872 10.8848C10.4498 13.197 11.2553 14.1366 11.5169 14.3024C12.3691 14.8425 13.5354 14.5233 13.973 13.6301C14.2279 13.1096 14.1341 12.3857 13.7559 11.9557C13.5286 11.6971 12.1715 10.668 8.40411 7.89725C7.3014 7.08628 6.33026 6.3824 6.24601 6.33311C6.0502 6.21858 5.87855 6.2196 5.67829 6.33648ZM10.2286 10.5612C11.587 11.5666 12.8087 12.5025 12.8985 12.6067C13.308 13.0814 12.6706 13.7748 12.1353 13.437C11.9848 13.342 11.4885 12.7603 10.187 11.1536C9.70815 10.5624 9.23437 9.98092 9.1342 9.86151C9.03407 9.74209 8.98659 9.66363 9.02871 9.68713C9.07083 9.71063 9.61078 10.1039 10.2286 10.5612Z" fill="white"/>
</svg>
