<svg width="33" height="33" viewBox="0 0 33 33" fill="none" xmlns="http://www.w3.org/2000/svg">
<circle cx="16.5" cy="16.5" r="15.5" stroke="white" stroke-width="2"/>
<path d="M15.648 18.464C15.648 18.048 15.7173 17.6853 15.856 17.376C15.9947 17.0667 16.1653 16.7893 16.368 16.544C16.5813 16.2987 16.8107 16.0747 17.056 15.872C17.3013 15.6587 17.5307 15.4507 17.744 15.248C17.9573 15.0347 18.128 14.8107 18.256 14.576C18.3947 14.3413 18.464 14.0693 18.464 13.76C18.464 13.248 18.2613 12.832 17.856 12.512C17.4507 12.192 16.8907 12.032 16.176 12.032C15.536 12.032 14.9813 12.1387 14.512 12.352C14.0427 12.5653 13.6427 12.88 13.312 13.296L12.144 12.464C12.592 11.8987 13.1627 11.4613 13.856 11.152C14.5493 10.832 15.36 10.672 16.288 10.672C17.056 10.672 17.7227 10.7893 18.288 11.024C18.8533 11.248 19.2907 11.5733 19.6 12C19.92 12.416 20.08 12.9227 20.08 13.52C20.08 13.968 20.0107 14.352 19.872 14.672C19.7333 14.992 19.5573 15.2747 19.344 15.52C19.1307 15.7653 18.9013 15.9947 18.656 16.208C18.4213 16.4213 18.1973 16.6347 17.984 16.848C17.7707 17.0613 17.5947 17.296 17.456 17.552C17.3173 17.808 17.248 18.112 17.248 18.464H15.648ZM16.464 22.096C16.1653 22.096 15.9147 21.9947 15.712 21.792C15.52 21.5893 15.424 21.3493 15.424 21.072C15.424 20.7733 15.52 20.528 15.712 20.336C15.9147 20.144 16.1653 20.048 16.464 20.048C16.7627 20.048 17.008 20.144 17.2 20.336C17.392 20.528 17.488 20.7733 17.488 21.072C17.488 21.3493 17.392 21.5893 17.2 21.792C17.008 21.9947 16.7627 22.096 16.464 22.096Z" fill="white"/>
</svg>
