<svg width="14" height="14" viewBox="0 0 14 14" fill="none" xmlns="http://www.w3.org/2000/svg">
<path fill-rule="evenodd" clip-rule="evenodd" d="M8.77948 9.62884C6.65717 11.3286 3.55055 11.1949 1.58319 9.22749C-0.527729 7.11657 -0.527729 3.6941 1.58319 1.58319C3.6941 -0.527729 7.11657 -0.527729 9.22748 1.58319C11.1948 3.55055 11.3286 6.65716 9.62884 8.77947L13.7574 12.9081C13.992 13.1426 13.992 13.5229 13.7574 13.7574C13.5229 13.992 13.1426 13.992 12.9081 13.7574L8.77948 9.62884ZM2.43255 8.37812C0.79073 6.7363 0.79073 4.07438 2.43255 2.43255C4.07437 0.79073 6.73629 0.79073 8.37812 2.43255C10.0187 4.07317 10.0199 6.73239 8.38173 8.3745C8.38052 8.3757 8.37931 8.3769 8.3781 8.3781C8.3769 8.37931 8.3757 8.38052 8.37451 8.38173C6.73239 10.0199 4.07317 10.0187 2.43255 8.37812Z" fill="white"/>
</svg>
