<svg width="28" height="25" viewBox="0 0 28 25" fill="none" xmlns="http://www.w3.org/2000/svg">
<path fill-rule="evenodd" clip-rule="evenodd" d="M19.744 0.033458C19.6989 0.0512915 19.6066 0.120263 19.5389 0.186755C19.3471 0.37507 19.3806 0.608145 19.6653 1.06621C20.1679 1.8748 20.4371 2.75342 20.3814 3.40352C20.3434 3.84646 20.2374 4.11904 19.862 4.73814C19.2365 5.76988 19.1465 6.94488 19.5827 8.38615C19.7672 8.99585 20.0844 9.69467 20.2652 9.88977C20.4388 10.0773 20.692 10.0755 20.868 9.88552C21.0568 9.68174 21.039 9.45763 20.7911 8.92198C20.3879 8.05015 20.2007 7.21055 20.255 6.51682C20.2964 5.98831 20.4198 5.62054 20.7117 5.15563C21.029 4.65021 21.1558 4.35826 21.2547 3.90516C21.4643 2.94569 21.1607 1.67449 20.4495 0.534036C20.1735 0.0915053 19.9675 -0.0547056 19.744 0.033458ZM22.8125 0.0561336C22.4501 0.212561 22.4467 0.532619 22.8013 1.11646C23.2879 1.91755 23.5591 2.81909 23.4911 3.40913C23.4388 3.86223 23.35 4.0979 23.036 4.61714C22.3479 5.75482 22.2412 6.87426 22.6804 8.34753C22.8655 8.96851 23.2147 9.72968 23.3944 9.90365C23.6671 10.1678 24.1204 9.948 24.1204 9.55159C24.1204 9.45781 24.0337 9.19728 23.9277 8.97271C23.5796 8.23545 23.3546 7.36362 23.3546 6.7522C23.3546 6.09572 23.5048 5.63731 23.9543 4.92255C24.5951 3.90344 24.5868 2.63874 23.93 1.22606C23.6629 0.651489 23.3254 0.141404 23.1579 0.0590271C22.999 -0.0191568 22.9871 -0.0192159 22.8125 0.0561336ZM3.35204 0.285253C3.20258 0.351981 3.05898 0.572006 3.05898 0.734279C3.05898 0.803428 3.17069 1.04335 3.30729 1.26739C3.95762 2.33433 4.19105 3.35734 3.95521 4.10717C3.90658 4.26177 3.77469 4.53512 3.66205 4.71451C3.247 5.37571 3.0923 5.79344 3.00362 6.49249C2.88841 7.40094 3.11708 8.53183 3.63475 9.61377C3.94723 10.2669 4.18361 10.414 4.49515 10.1495C4.73509 9.94581 4.73175 9.77515 4.47688 9.21009C3.7551 7.60998 3.71714 6.4299 4.35456 5.4089C4.98017 4.4068 5.12448 3.51938 4.8364 2.44629C4.63739 1.70496 4.14307 0.685621 3.83929 0.390128C3.7121 0.266356 3.49772 0.220237 3.35204 0.285253ZM6.34347 0.393671C6.11962 0.635309 6.13144 0.811341 6.4002 1.23858C6.8693 1.98422 7.1635 2.84944 7.16006 3.47343C7.1577 3.91218 7.01968 4.31686 6.68281 4.87313C5.87345 6.20958 5.8828 7.73062 6.71169 9.54727C7.0402 10.2674 7.32773 10.4473 7.62932 10.1217C7.82516 9.91038 7.80054 9.67713 7.51652 9.05107C7.17149 8.29049 7.03763 7.7171 7.03506 6.98935C7.03259 6.27766 7.12477 5.9631 7.53331 5.28908C7.90426 4.67708 8.03955 4.26791 8.07434 3.65295C8.12019 2.84235 7.87325 1.91117 7.37904 1.03095C6.94178 0.252184 6.64419 0.0690658 6.34347 0.393671ZM13.5485 4.89439C12.9708 5.05176 12.466 5.5094 12.2144 6.10358C12.0914 6.39411 12.0642 6.54292 12.0631 6.9303C12.0612 7.55034 12.2437 8.00615 12.6665 8.43782C12.934 8.71087 12.9606 8.76118 12.9606 8.99355V9.24907L12.5913 9.28981C10.7037 9.49814 8.41893 10.5234 6.91285 11.8379C5.24702 13.2918 3.99767 15.0973 3.30948 17.045C2.9296 18.1203 2.56789 19.7605 2.56603 20.4164C2.5657 20.534 2.55055 20.7273 2.53239 20.8459L2.49935 21.0616L1.80815 21.0821C1.21279 21.0998 1.08281 21.1217 0.870777 21.2408C0.536146 21.4286 0.340301 21.6377 0.17077 21.9884C0.0479028 22.2424 0.0249813 22.3744 0.00676453 22.9332C-0.0113429 23.4885 0.00255223 23.6314 0.102334 23.9178C0.24227 24.3195 0.564155 24.6969 0.916948 24.8729L1.17165 25H14H26.8283L27.0831 24.8729C27.4358 24.6969 27.7577 24.3195 27.8977 23.9178C27.9974 23.6314 28.0113 23.4885 27.9932 22.9332C27.975 22.3744 27.9521 22.2424 27.8292 21.9884C27.6597 21.6377 27.4639 21.4286 27.1292 21.2408C26.9172 21.1217 26.7872 21.0998 26.1919 21.0821L25.5007 21.0616L25.4676 20.8459C25.4494 20.7273 25.4343 20.534 25.434 20.4164C25.4336 20.2988 25.3828 19.8869 25.3211 19.5011C24.8335 16.4564 23.4031 13.8629 21.0893 11.8283C19.6379 10.552 17.274 9.49566 15.4087 9.28981L15.0394 9.24907V8.99355C15.0394 8.76118 15.066 8.71087 15.3335 8.43782C15.7567 8.00574 15.939 7.55016 15.9365 6.9303C15.9349 6.54416 15.907 6.39199 15.7838 6.09708C15.4872 5.38699 14.8452 4.90915 14.1253 4.8625C13.921 4.84927 13.6614 4.86362 13.5485 4.89439ZM14.5942 6.05728C14.8867 6.30772 15.061 6.71641 15.0154 7.0448C14.9712 7.36267 14.7994 7.65007 14.5457 7.83018C14.1393 8.11882 14.1151 8.1653 14.0979 8.69038C14.0846 9.09494 14.0666 9.17614 13.9863 9.19267C13.9013 9.21021 13.8906 9.15695 13.8906 8.71648C13.8906 8.16919 13.8868 8.16128 13.4648 7.84211C12.7677 7.31472 12.8291 6.37155 13.5897 5.9269C13.8467 5.77667 14.3414 5.84086 14.5942 6.05728ZM15.5317 10.3199C16.7063 10.5112 17.6938 10.8408 18.6566 11.3627C21.9673 13.1576 24.1285 16.5077 24.5006 20.4215C24.5322 20.7543 24.5581 21.037 24.5581 21.0498C24.5581 21.0626 23.9292 21.0731 23.1606 21.0731H21.7631L21.6289 21.2181C21.4967 21.3607 21.4555 21.6031 21.5286 21.8086C21.6194 22.0641 21.7491 22.077 24.2299 22.077C26.8166 22.077 26.8231 22.0778 26.9915 22.4293C27.1027 22.6614 27.1018 23.3848 26.99 23.6391C26.8207 24.0242 27.8423 23.9961 14 23.9961C3.30975 23.9961 1.35787 23.9836 1.23714 23.9138C1.02428 23.7908 0.925482 23.5089 0.925482 23.0247C0.925482 22.5627 1.01339 22.3053 1.21323 22.1821C1.31082 22.1218 3.1464 22.1005 10.2375 22.077L19.1393 22.0474L19.2611 21.9159C19.4407 21.7221 19.4272 21.3941 19.2322 21.213L19.0814 21.0731H11.2617C6.96082 21.0731 3.44192 21.0626 3.44192 21.0498C3.44192 21.037 3.46779 20.7543 3.49941 20.4215C3.99072 15.2539 7.63927 11.1208 12.4136 10.3234C13.2916 10.1768 14.644 10.1752 15.5317 10.3199Z" fill="white"/>
</svg>
