<svg width="28" height="21" viewBox="0 0 28 21" fill="none" xmlns="http://www.w3.org/2000/svg">
<path d="M14.0357 2.62467C14.0095 2.6845 13.9913 2.75254 13.9873 2.82771C13.9801 2.9631 14.0208 3.08008 14.0752 3.16868C14.1736 3.3291 14.3252 3.41532 14.4273 3.46106C14.5426 3.51276 14.673 3.54727 14.8077 3.56874C15.6549 3.70386 16.3779 4.09592 16.846 4.63993C17.4431 5.33376 17.7391 6.33001 17.8962 8.9222C18.0097 10.795 18.1599 11.8258 18.4817 12.687L18.4818 12.6871C18.5572 12.8889 18.7354 13.2353 18.9425 13.609C19.1559 13.9943 19.4186 14.4416 19.68 14.86L19.6801 14.86C20.2627 15.7923 20.5639 16.3139 20.728 16.7346C20.8809 17.1262 20.9187 17.4401 20.9229 17.978L20.9255 18.3212L13.971 18.3423L7.01566 18.3636V18.2133C7.01566 17.2774 7.28802 16.4689 8.18315 15.0362C8.87507 13.9287 9.31194 13.1345 9.5988 12.2571C9.88498 11.3818 10.013 10.4506 10.1309 9.08364C10.3362 6.70346 10.4999 5.99016 10.8991 5.26059L10.8991 5.26058C11.2571 4.60618 12.0954 3.9684 13.0837 3.67878L14.0357 2.62467ZM14.0357 2.62467C14.021 2.62537 14.0061 2.62576 13.9912 2.62585C13.9624 2.62603 13.9337 2.62504 13.9052 2.62291C13.9321 2.68096 13.9534 2.74873 13.9611 2.82547C13.9745 2.9592 13.9429 3.08316 13.8857 3.18606C13.7854 3.36645 13.6171 3.46563 13.5106 3.51919L14.0357 2.62467ZM4.01804 2.27009L4.018 2.27012C2.17479 3.90502 1.10453 5.82175 0.636766 8.34284L4.01804 2.27009ZM4.01804 2.27009C4.15616 2.14755 4.2655 2.06176 4.35311 2.00398C4.41314 1.9644 4.45484 1.94344 4.48111 1.93258C4.48341 1.93492 4.48587 1.93749 4.48849 1.94029C4.5034 1.95626 4.51232 1.96825 4.51746 1.97613C4.51326 1.98635 4.50502 2.00315 4.48918 2.02687C4.46011 2.07043 4.41122 2.12858 4.33289 2.20071L4.33288 2.20072C2.42196 3.96064 1.43284 5.52535 0.908042 7.68607C0.357883 9.95107 0.627244 12.9782 1.56907 15.2031L1.56908 15.2031M4.01804 2.27009L1.56908 15.2031M1.56908 15.2031C1.7074 15.5298 1.7577 15.711 1.76749 15.8166C1.76961 15.8395 1.76933 15.8547 1.76864 15.8638C1.76861 15.8642 1.76858 15.8647 1.76854 15.8651C1.75898 15.8667 1.74809 15.8678 1.73654 15.8678C1.72488 15.8679 1.71404 15.867 1.70474 15.8655C1.70407 15.8654 1.70341 15.8652 1.70277 15.8651C1.66701 15.8102 1.60125 15.6882 1.51339 15.4792C1.41383 15.2424 1.30413 14.9391 1.19452 14.5975C0.975095 13.9137 0.764698 13.1036 0.640608 12.4126C0.54981 11.9069 0.500619 11.1405 0.500006 10.3594M1.56908 15.2031L0.500006 10.3594M23.8474 2.15815L23.8474 2.15813C23.7428 2.07171 23.6594 2.014 23.594 1.97719C23.5514 1.95327 23.5217 1.94116 23.5032 1.93512C23.5027 1.93595 23.5021 1.93692 23.5015 1.93805C23.4962 1.94726 23.4894 1.96116 23.4829 1.97844C23.4764 1.99563 23.4717 2.01203 23.4689 2.0254C23.4684 2.02786 23.468 2.03003 23.4676 2.0319C23.4704 2.03595 23.4741 2.04098 23.4788 2.04707C23.5341 2.11893 23.6504 2.23383 23.9119 2.46274M23.8474 2.15815L26.2082 15.866L26.2081 15.8659C26.1948 15.853 26.1898 15.8544 26.2034 15.859C26.2079 15.8605 26.2133 15.862 26.2194 15.8632M23.8474 2.15815C24.3989 2.6139 25.3781 3.71526 25.8075 4.36622C27.4201 6.81138 27.917 10.0543 27.1401 13.347C27.0216 13.8491 26.8368 14.4536 26.6544 14.9647C26.5633 15.2199 26.4749 15.4458 26.3981 15.6202C26.3596 15.7075 26.3259 15.7774 26.2981 15.8295C26.2902 15.8442 26.2835 15.8562 26.2779 15.8658C26.2726 15.8664 26.2663 15.8668 26.2593 15.8669C26.2444 15.867 26.2307 15.8655 26.2194 15.8632M23.8474 2.15815L26.2194 15.8632M23.9119 2.46274L23.5826 2.83896M23.9119 2.46274L23.5826 2.83896M23.9119 2.46274C26.0474 4.33183 27.2142 6.82773 27.3475 9.774C27.429 11.5741 27.1303 13.3686 26.4707 15.0402M23.5826 2.83896C23.0707 2.39087 22.9664 2.25542 22.9664 2.03836C22.9664 1.89464 23.0412 1.69698 23.1326 1.59908L23.5826 2.83896ZM26.4707 15.0402L26.0056 14.8567L26.4707 15.0402C26.4707 15.0402 26.4707 15.0402 26.4707 15.0402ZM26.4707 15.0402C26.3028 15.4657 26.236 15.6967 26.2218 15.8308C26.2204 15.8438 26.2197 15.8546 26.2194 15.8632M3.64921 12.612L3.64921 12.612C3.72119 12.9269 3.85988 13.3674 4.00449 13.7602C4.07629 13.9552 4.14703 14.1315 4.20849 14.2688C4.24766 14.3563 4.27644 14.4126 4.29383 14.4447C4.29815 14.445 4.30278 14.445 4.30766 14.4449C4.31732 14.4447 4.3268 14.4437 4.33556 14.4421C4.33521 14.4271 4.33383 14.4061 4.33019 14.3779C4.30908 14.214 4.23299 13.9439 4.06231 13.4528L4.0623 13.4528C3.69395 12.3927 3.52313 11.4224 3.52313 10.3651C3.52313 9.08718 3.72143 8.16586 4.24732 7.00016L4.24734 7.00011C4.43996 6.57328 4.58066 6.28208 4.78409 5.98966C4.98357 5.70293 5.23413 5.42851 5.62324 5.01751L5.62326 5.01748C6.07375 4.54172 6.27219 4.29289 6.34484 4.14993C6.31762 4.15979 6.27071 4.18184 6.20044 4.22908L3.64921 12.612ZM3.64921 12.612C2.90351 9.35067 3.72179 6.46966 5.88838 4.48297L3.64921 12.612ZM23.058 4.76837C23.9893 5.80899 24.54 6.88049 24.8828 8.31821C25.1062 9.25461 25.151 11.1512 24.9714 12.056L23.058 4.76837ZM23.058 4.76837L22.6854 5.10179C22.2084 4.5687 21.8924 4.29213 21.6903 4.18191C21.6709 4.1713 21.6546 4.16343 21.6413 4.15761C21.6303 4.17161 21.6209 4.18403 21.6128 4.19513C21.6286 4.21767 21.6518 4.24823 21.6854 4.28812C21.771 4.38978 21.896 4.5199 22.0772 4.70077C22.9302 5.55203 23.3943 6.1954 23.802 7.12149L23.8021 7.12154C24.2204 8.07182 24.3818 8.79887 24.4376 9.9402C24.4979 11.1731 24.3703 12.0767 23.9688 13.282L23.9688 13.282C23.7728 13.8701 23.6838 14.1904 23.6599 14.3814C23.6571 14.4036 23.6555 14.4218 23.6547 14.4363C23.6601 14.4362 23.6662 14.4359 23.6729 14.4352C23.6744 14.433 23.6759 14.4305 23.6776 14.428C23.7024 14.3881 23.7342 14.3298 23.7796 14.2396L23.7796 14.2396C23.9926 13.8165 24.3183 12.7776 24.481 11.9586C24.5601 11.5598 24.5947 10.9024 24.5784 10.2108C24.562 9.52044 24.4962 8.85248 24.3965 8.4342L24.3965 8.43418C24.0718 7.07239 23.558 6.07687 22.6854 5.1018L23.058 4.76837ZM7.84806 6.69871L7.84802 6.69875C6.67328 7.61023 5.96408 9.41644 6.16451 11.1602L7.84806 6.69871ZM7.84806 6.69871C7.92973 6.63534 7.98746 6.59813 8.02756 6.57703C8.03298 6.58206 8.03906 6.58791 8.04579 6.59468L7.84806 6.69871ZM6.73884 13.1655L6.73889 13.1656C6.74454 13.172 6.74948 13.1769 6.75355 13.1805C6.76284 13.1729 6.7767 13.1593 6.79276 13.1362L6.81287 13.1072L6.62577 12.5595C5.91785 10.4874 6.25266 8.59414 7.65872 7.11175L7.65872 7.11175C7.81123 6.95096 7.91814 6.82866 7.99105 6.73175C8.02929 6.68092 8.05313 6.64359 8.06778 6.6177L6.73884 13.1655ZM6.73884 13.1655C6.72232 13.1467 6.67647 13.0786 6.61331 12.9365M6.73884 13.1655L6.61331 12.9365M20.3289 7.12494L20.329 7.12495C21.0184 7.8605 21.4577 8.67336 21.6345 9.5827C21.795 10.4079 21.6949 11.573 21.4007 12.4033C21.321 12.6283 21.2647 12.7902 21.2262 12.9144C21.1932 13.0208 21.1795 13.0807 21.1742 13.1143C21.1815 13.1252 21.1926 13.1411 21.2092 13.1636L21.2092 13.1637C21.2156 13.1724 21.2215 13.1794 21.2266 13.1849C21.2289 13.1825 21.2314 13.1798 21.234 13.1767L21.6136 13.5022M20.3289 7.12494L19.9568 6.57724C19.9974 6.59776 20.0558 6.63447 20.1367 6.69722C21.3394 7.63051 22.0545 9.52273 21.8044 11.2901C21.7502 11.6733 21.6449 12.1122 21.525 12.4864C21.4653 12.673 21.4042 12.8365 21.3472 12.9646C21.3188 13.0285 21.2931 13.0797 21.2712 13.1184C21.2604 13.1375 21.2513 13.152 21.2443 13.1625C21.2411 13.1671 21.2387 13.1705 21.237 13.1729C21.2347 13.1759 21.2337 13.1771 21.234 13.1768L21.6136 13.5022M20.3289 7.12494C20.1775 6.96335 20.0715 6.84164 19.999 6.74529C19.9566 6.68907 19.9319 6.64957 19.9178 6.62374C19.9258 6.61334 19.9364 6.60034 19.9502 6.58455L20.3289 7.12494ZM21.6136 13.5022C21.3743 13.7813 21.029 13.7631 20.8062 13.4596L21.6136 13.5022ZM0.500006 10.3594C0.499392 9.57725 0.547518 8.82393 0.636764 8.34285L0.500006 10.3594ZM6.61331 12.9365C6.55423 12.8036 6.49232 12.6343 6.4329 12.4396M6.61331 12.9365L6.4329 12.4396M6.4329 12.4396C6.3139 12.0496 6.21349 11.586 6.16451 11.1602L6.4329 12.4396ZM14.8602 2.55742C14.934 2.48215 15.0122 2.38734 15.0779 2.29013C15.2742 2.00001 15.3226 1.83661 15.3226 1.46541C15.3226 0.306608 14.2026 -0.375539 13.2763 0.219126L14.8602 2.55742ZM14.8295 2.5451C14.8297 2.54505 14.8317 2.54598 14.8353 2.54807C14.8312 2.5462 14.8294 2.54515 14.8295 2.5451ZM14.8091 3.18905C14.8089 3.18898 14.8109 3.18796 14.8154 3.18622C14.8115 3.18825 14.8092 3.18912 14.8091 3.18905ZM4.31333 14.4793L4.3133 14.4792L4.31333 14.4793ZM13.3172 20.2172L13.3171 20.2171C13.2648 20.1562 13.1953 20.0413 13.134 19.908C13.3338 19.901 13.6107 19.8981 13.9933 19.8981C14.3749 19.8981 14.6521 19.8985 14.8567 19.9064C14.7607 20.1146 14.6456 20.2525 14.5258 20.341C14.391 20.4405 14.2198 20.5 13.9933 20.5C13.7105 20.5 13.4562 20.379 13.3172 20.2172Z" stroke="white"/>
</svg>
