<svg width="25" height="25" viewBox="0 0 25 25" fill="none" xmlns="http://www.w3.org/2000/svg">
<path fill-rule="evenodd" clip-rule="evenodd" d="M11.5619 0.0145401C11.4678 0.0254857 11.1818 0.0582739 10.9264 0.0874461C7.05783 0.528987 3.48357 2.95257 1.52212 6.46423C0.806033 7.74624 0.287706 9.33615 0.0656987 10.9317C-0.0317382 11.6319 -0.0182447 13.505 0.0892634 14.2056C0.528732 17.0696 1.70717 19.4116 3.69697 21.3755C4.00277 21.6773 4.45094 22.0825 4.69295 22.2759C7.82858 24.7823 11.995 25.622 15.8887 24.5324C20.4303 23.2614 23.9355 19.4357 24.7838 14.8237C25.5436 10.6931 24.2793 6.60169 21.3334 3.6573C19.3866 1.71146 17.0358 0.533482 14.2509 0.10836C13.7635 0.0339393 11.9422 -0.0295847 11.5619 0.0145401ZM12.9193 4.80757C13.2038 5.01994 13.2474 5.13277 13.265 5.70282C13.2841 6.31509 13.2825 6.3126 13.7564 6.48563C14.3897 6.71681 15.084 7.28535 15.4627 7.88277C15.7782 8.38036 16.0109 9.14841 16.0109 9.69188C16.0109 9.96347 15.8669 10.253 15.6576 10.4023C15.4418 10.5561 15.0049 10.5629 14.8075 10.4156C14.5565 10.2283 14.4883 10.0866 14.4414 9.65548C14.3565 8.87311 13.9632 8.30603 13.2819 7.98343C12.9865 7.84358 12.9108 7.82877 12.4908 7.82877C12.0708 7.82877 11.9951 7.84358 11.6998 7.98343C11.2453 8.19863 10.9622 8.47564 10.7423 8.92041C10.57 9.26891 10.5597 9.31587 10.5597 9.75638C10.5597 10.1791 10.5743 10.254 10.7144 10.5496C10.926 10.9959 11.2082 11.2874 11.6306 11.4961C11.9412 11.6495 12.0435 11.6733 12.579 11.7166C13.6405 11.8025 14.2791 12.0835 14.9599 12.764C15.5999 13.4036 15.9325 14.1167 15.9938 14.9807C16.1021 16.5049 15.1556 17.9943 13.7536 18.5061C13.2825 18.6781 13.2733 18.6915 13.272 19.2096C13.2707 19.7329 13.1773 19.9916 12.9243 20.1719C12.704 20.329 12.2692 20.3374 12.0696 20.1885C11.7773 19.9703 11.7344 19.8609 11.7166 19.2879C11.6976 18.6756 11.6992 18.6781 11.2252 18.5051C10.592 18.2739 9.89768 17.7053 9.51893 17.1079C9.2035 16.6103 8.97078 15.8423 8.97078 15.2988C8.97078 15.0272 9.11481 14.7376 9.32411 14.5884C9.53986 14.4346 9.97678 14.4278 10.1742 14.5751C10.4246 14.762 10.4934 14.9044 10.5414 15.3352C10.6279 16.1128 10.9936 16.6543 11.6519 16.9794C12.001 17.1518 12.0472 17.1619 12.4908 17.1619C12.9345 17.1619 12.9807 17.1518 13.3298 16.9794C13.7748 16.7596 14.0519 16.4767 14.2672 16.0224C14.4072 15.7272 14.422 15.6516 14.422 15.2318C14.422 14.812 14.4072 14.7363 14.2672 14.4411C14.0557 13.9948 13.7735 13.7033 13.3511 13.4946C13.0404 13.3412 12.9382 13.3174 12.4026 13.2741C11.3412 13.1881 10.7026 12.9072 10.0218 12.2267C9.80655 12.0116 9.54749 11.6927 9.44604 11.5181C8.78676 10.3827 8.8293 8.93888 9.55423 7.84309C9.9674 7.2186 10.5805 6.72096 11.228 6.48461C11.6992 6.3126 11.7084 6.29916 11.7097 5.7811C11.7111 5.16609 11.8603 4.86846 12.2464 4.70965C12.3855 4.65243 12.7902 4.71131 12.9193 4.80757Z" fill="white"/>
</svg>
