<svg width="25" height="25" viewBox="0 0 25 25" fill="none" xmlns="http://www.w3.org/2000/svg">
<path fill-rule="evenodd" clip-rule="evenodd" d="M0.247125 0.0682307C-0.00381342 0.20738 0.00102266 0.138905 9.45234e-05 3.5435C-0.000882463 7.11051 -0.000589364 7.11466 0.340965 7.80792C0.578959 8.29111 1.04102 8.78319 1.49972 9.04203L1.80288 9.2131L1.81612 16.5689L1.82935 23.9247L1.93223 24.1472C2.08259 24.4723 2.31203 24.7091 2.62648 24.8636C2.85534 24.9761 2.96833 25 3.27041 25C3.88103 25 4.35345 24.6989 4.60859 24.1472L4.71146 23.9247L4.72563 16.5689L4.7398 9.2131L5.04281 9.04203C5.49994 8.78392 5.96166 8.2915 6.19985 7.80792C6.54097 7.11554 6.5415 7.10875 6.54248 3.55327C6.54336 0.115787 6.54849 0.1826 6.27601 0.0584067C6.11402 -0.0154448 5.99561 -0.0154448 5.83363 0.0584067C5.56423 0.181183 5.56633 0.157625 5.56633 3.07674V5.76735H5.12668H4.68704V3.08148C4.68704 1.10323 4.67165 0.361828 4.62866 0.267449C4.56487 0.12737 4.36004 0 4.19855 0C4.03705 0 3.83223 0.12737 3.76843 0.267449C3.72544 0.361828 3.71005 1.10323 3.71005 3.08148V5.76735H3.27041H2.83077V3.08148C2.83077 1.10323 2.81538 0.361828 2.77239 0.267449C2.66766 0.0374389 2.37388 -0.0568426 2.12108 0.0584067C1.85168 0.181183 1.85378 0.157625 1.85378 3.07674V5.76735H1.41414H0.974492V3.08148C0.974492 1.10323 0.959104 0.361828 0.916117 0.267449C0.809186 0.0325513 0.485315 -0.0638807 0.247125 0.0682307ZM24.098 0.19262C23.6556 0.490127 23.0256 1.05543 22.6044 1.5328C21.5761 2.69824 20.864 4.15567 20.5537 5.72986C20.4483 6.26496 20.4447 6.38793 20.4284 10.0746C20.4098 14.2628 20.4066 14.2087 20.7152 14.8205C20.826 15.0401 21.0368 15.2961 21.4719 15.7394L22.075 16.3541L22.0884 20.1394C22.1016 23.8707 22.1033 23.9279 22.2047 24.1472C22.3551 24.4723 22.5845 24.7091 22.8989 24.8636C23.1278 24.9761 23.2408 25 23.5429 25C24.1535 25 24.6259 24.6989 24.8811 24.1472L24.9839 23.9247L24.9968 12.1701C25.0063 3.37727 24.9954 0.380987 24.9532 0.278739C24.8907 0.126979 24.6858 0 24.5034 0C24.438 0 24.2555 0.0867058 24.098 0.19262ZM23.9761 23.7682C23.9159 23.9146 23.7102 24.0469 23.5429 24.0469C23.4014 24.0469 23.1727 23.9219 23.1214 23.8166C23.098 23.7685 23.0678 21.9768 23.0544 19.8349L23.03 15.9407L22.3433 15.2406C21.8924 14.7809 21.6156 14.4566 21.5373 14.2962L21.4179 14.0518L21.4045 10.4621C21.3934 7.49228 21.4037 6.77483 21.4645 6.30762C21.6819 4.63573 22.4284 3.0933 23.5917 1.91227L24.0069 1.49071L24.0196 12.5611C24.0291 20.8188 24.018 23.6662 23.9761 23.7682ZM11.4282 3.23109C10.5294 3.33289 9.41868 3.64721 8.61946 4.026C8.13267 4.25675 8.00879 4.37996 8.00879 4.63338C8.00879 4.85621 8.23291 5.08309 8.45303 5.08309C8.54027 5.08309 8.89917 4.96359 9.25059 4.81755C10.6649 4.22977 12.1116 4.03328 13.5941 4.22776C15.3663 4.46017 16.8856 5.18304 18.2144 6.4259C18.6725 6.85435 18.7278 6.8915 18.9086 6.8915C19.1893 6.8915 19.3907 6.68568 19.3907 6.39888C19.3907 6.20562 19.3665 6.16852 19.0228 5.83451C17.5055 4.36012 15.5859 3.45929 13.4696 3.22864C12.9254 3.16931 11.9635 3.17048 11.4282 3.23109ZM11.7946 5.60254C10.724 5.71877 9.53626 6.15709 8.59933 6.78172C8.05271 7.14619 7.1381 8.06134 6.78009 8.60215C6.25241 9.39922 5.90578 10.2147 5.70169 11.1391C5.55382 11.809 5.55436 13.2065 5.70271 13.8853C6.30908 16.6592 8.37414 18.7173 11.1504 19.3147C11.8609 19.4675 13.1432 19.4679 13.8514 19.3155C14.5645 19.162 15.0408 18.9922 15.6818 18.6628C17.5445 17.7057 18.8491 15.9765 19.3013 13.8655C19.4438 13.2004 19.4552 11.9223 19.3245 11.2676C18.8852 9.06711 17.5232 7.26838 15.556 6.29091C14.6274 5.82947 13.7798 5.624 12.6983 5.59824C12.3088 5.58895 11.9021 5.59086 11.7946 5.60254ZM13.3863 6.62058C15.2979 6.9089 16.9556 8.1194 17.8402 9.87292C18.0875 10.3633 18.3053 11.0567 18.3914 11.6283C18.8798 14.8701 16.6292 17.9148 13.3824 18.4044C10.8094 18.7926 8.25861 17.4352 7.13156 15.0782C5.79734 12.2878 6.81535 8.97209 9.4987 7.36862C10.6306 6.69223 12.0503 6.41906 13.3863 6.62058ZM5.50331 6.91114C5.41836 7.4349 4.85606 8.09555 4.31603 8.30611C4.15737 8.36799 3.96715 8.48226 3.89324 8.56002L3.7589 8.70147V16.1811C3.7589 24.3138 3.77444 23.8596 3.4916 23.9885C3.32961 24.0624 3.2112 24.0624 3.04922 23.9885C2.76638 23.8596 2.78192 24.3135 2.78192 16.1841V8.70738L2.65545 8.55704C2.58588 8.47434 2.50147 8.40665 2.46786 8.40665C2.31878 8.40665 1.80259 8.09365 1.57632 7.86608C1.3158 7.60406 1.08299 7.1914 1.03751 6.91114L1.01054 6.74487H3.27041H5.53028L5.50331 6.91114ZM12.2761 8.06413C12.1184 8.12776 12.0144 8.30855 12.0144 8.51901C12.0144 9.00611 12.6984 9.17395 12.9218 8.74169C13.1425 8.31461 12.7294 7.88109 12.2761 8.06413ZM10.4789 8.5085C9.17976 9.16647 8.26203 10.4534 8.06106 11.8989C7.97259 12.5355 7.98598 12.6458 8.17488 12.8348C8.35826 13.0183 8.51507 13.0448 8.73709 12.93C8.90962 12.8407 8.9616 12.6981 9.02481 12.1404C9.08269 11.6299 9.24898 11.1114 9.48302 10.7119C9.72863 10.2927 10.3574 9.69208 10.8182 9.43656C11.0328 9.31755 11.2465 9.18803 11.2929 9.14883C11.4195 9.04198 11.4507 8.78729 11.3588 8.60953C11.2059 8.31378 10.9266 8.28172 10.4789 8.5085ZM19.2844 17.5358C19.2394 17.5551 18.9433 17.8434 18.6262 18.1765C17.364 19.5029 16.0915 20.246 14.3914 20.6498C12.3612 21.1319 10.116 20.7973 8.32631 19.746C8.05056 19.584 7.82761 19.4867 7.7282 19.4848C7.39139 19.4786 7.14948 19.8312 7.27786 20.1412C7.35206 20.3204 7.62083 20.504 8.32631 20.8574C12.2652 22.8301 17.0463 21.7792 19.7937 18.3367C19.88 18.2286 19.928 18.1099 19.928 18.0048C19.928 17.704 19.5444 17.4244 19.2844 17.5358ZM6.01134 18.3478C5.94716 18.3834 5.86548 18.4651 5.82992 18.5293C5.55768 19.0207 6.19956 19.5108 6.59592 19.1142C6.99229 18.7176 6.50247 18.0754 6.01134 18.3478Z" fill="white"/>
</svg>
